<svg width="100" height="100" viewBox="0 0 100 100" fill="none" xmlns="http://www.w3.org/2000/svg">
<g clip-path="url(#clip0_3_27)">
<path d="M70.3645 46.7665C56.7809 46.7665 45.729 57.8184 45.729 71.402C45.729 84.9857 56.7809 96.0375 70.3645 96.0375C83.9482 96.0375 95.0001 84.9857 95.0001 71.402C95.0001 57.8184 83.9482 46.7665 70.3645 46.7665ZM81.0412 66.6303L68.7234 80.8431C68.2042 81.4381 67.4651 81.7944 66.6768 81.821C66.6427 81.821 66.6086 81.821 66.5745 81.821C65.8202 81.821 65.0963 81.5215 64.5657 80.9871L57.9331 74.3545C56.8226 73.244 56.8226 71.4437 57.9331 70.3332C59.0436 69.2227 60.8439 69.2227 61.9543 70.3332L66.4304 74.8055L76.747 62.9009C77.7742 61.7184 79.5669 61.5857 80.7569 62.6128C81.9395 63.6513 82.0683 65.444 81.0412 66.6303Z" fill="#2F3091"/>
<path d="M38.9826 5.07568L20.5628 5.15148C18.175 5.15148 15.9389 6.47801 14.8019 8.56256L5.17505 25.9969L37.1254 25.9211L38.9826 5.07568Z" fill="#2F3091"/>
<path d="M78.6266 25.8455L68.8861 8.41107C67.7112 6.32653 65.5129 5 63.0873 5L44.6675 5.0758L46.6004 25.9213L78.6266 25.8455Z" fill="#2F3091"/>
<path d="M79.8395 40.5888C76.8454 39.6791 73.6617 39.1864 70.3643 39.1864C52.5889 39.1864 38.1486 53.6266 38.1486 71.4021C38.1486 74.6995 38.6414 77.9211 39.5889 80.9152L10.1399 80.991C10.102 80.991 10.102 80.991 10.102 80.991C6.84256 80.991 4.1516 78.3001 4.1516 75.0027L4 31.6821L39.0583 31.6063H44.7434L79.8016 31.4926L79.8395 40.5888Z" fill="#2F3091"/>
</g>
<defs>
<clipPath id="clip0_3_27">
<rect width="91" height="92" fill="white" transform="translate(4 5)"/>
</clipPath>
</defs>
</svg>
