<svg width="100" height="100" viewBox="0 0 100 100" fill="none" xmlns="http://www.w3.org/2000/svg">
<g clip-path="url(#clip0_2_26)">
<path d="M61.1506 57.6875C61.1506 56.0465 60.4987 54.4727 59.3384 53.3123C58.178 52.1519 56.6042 51.5 54.9631 51.5H45.6819C44.0409 51.5 42.467 52.1519 41.3067 53.3123C40.1463 54.4727 39.4944 56.0465 39.4944 57.6875V97.9062H61.1506V57.6875Z" fill="#2F3091"/>
<path d="M50.3225 51.5C53.7398 51.5 56.51 48.7298 56.51 45.3125C56.51 41.8952 53.7398 39.125 50.3225 39.125C46.9052 39.125 44.135 41.8952 44.135 45.3125C44.135 48.7298 46.9052 51.5 50.3225 51.5Z" fill="#2F3091"/>
<path d="M55.3483 12.1846L50.3225 2L45.2967 12.1846L34.0571 13.8166L42.1906 21.7443L40.2709 32.9375L50.3225 27.6534L60.3741 32.9375L58.4544 21.7443L66.5879 13.8166L55.3483 12.1846Z" fill="#2F3091"/>
<path d="M19.385 28.2969L15.8674 35.4264L8 36.5696L13.6925 42.1182L12.3483 49.9531L19.385 46.2545L26.4217 49.9531L25.0775 42.1182L30.77 36.5696L22.9026 35.4264L19.385 28.2969Z" fill="#2F3091"/>
<path d="M70.4319 76.25V97.9062H92.0881V76.25C92.0881 74.609 91.4362 73.0352 90.2759 71.8748C89.1155 70.7144 87.5417 70.0625 85.9006 70.0625H76.6194C74.9784 70.0625 73.4045 70.7144 72.2442 71.8748C71.0838 73.0352 70.4319 74.609 70.4319 76.25Z" fill="#2F3091"/>
<path d="M81.26 70.0625C84.6773 70.0625 87.4475 67.2923 87.4475 63.875C87.4475 60.4577 84.6773 57.6875 81.26 57.6875C77.8427 57.6875 75.0725 60.4577 75.0725 63.875C75.0725 67.2923 77.8427 70.0625 81.26 70.0625Z" fill="#2F3091"/>
<path d="M84.7776 35.4264L81.26 28.2969L77.7424 35.4264L69.875 36.5696L75.5675 42.1182L74.2233 49.9531L81.26 46.2545L88.2967 49.9531L86.9525 42.1182L92.645 36.5696L84.7776 35.4264Z" fill="#2F3091"/>
<path d="M24.0256 70.0625H14.7444C13.1034 70.0625 11.5295 70.7144 10.3692 71.8748C9.20878 73.0352 8.55688 74.609 8.55688 76.25V97.9062H30.2131V76.25C30.2131 74.609 29.5612 73.0352 28.4009 71.8748C27.2405 70.7144 25.6667 70.0625 24.0256 70.0625Z" fill="#2F3091"/>
<path d="M19.385 70.0625C22.8023 70.0625 25.5725 67.2923 25.5725 63.875C25.5725 60.4577 22.8023 57.6875 19.385 57.6875C15.9678 57.6875 13.1975 60.4577 13.1975 63.875C13.1975 67.2923 15.9678 70.0625 19.385 70.0625Z" fill="#2F3091"/>
</g>
<defs>
<clipPath id="clip0_2_26">
<rect width="85" height="96" fill="white" transform="translate(8 2)"/>
</clipPath>
</defs>
</svg>
