<svg width="100" height="100" viewBox="0 0 100 100" fill="none" xmlns="http://www.w3.org/2000/svg">
<g clip-path="url(#clip0_3_28)">
<path fill-rule="evenodd" clip-rule="evenodd" d="M98 38.5507C89.9049 36.9158 81.81 37.7351 73.7149 41.0089C73.2182 41.2097 72.9667 41.7633 73.142 42.2692L84.5763 75.2707C84.7191 75.6827 85.0901 75.9465 85.5264 75.9465H98V38.5507ZM28.0767 1C32.453 1 36.0007 4.50229 36.0007 8.82272C36.0007 13.1431 32.453 16.6454 28.0767 16.6454C23.7004 16.6454 20.1527 13.1431 20.1527 8.82272C20.1527 4.50229 23.7004 1 28.0767 1ZM50 6.77283C54.3763 6.77283 57.924 10.2751 57.924 14.5956C57.924 18.916 54.3763 22.4183 50 22.4183C45.6237 22.4183 42.076 18.916 42.076 14.5956C42.076 10.2751 45.6237 6.77283 50 6.77283ZM71.9235 1C76.2999 1 79.8475 4.50229 79.8475 8.82272C79.8475 13.1431 76.2999 16.6454 71.9235 16.6454C67.5472 16.6454 63.9995 13.1431 63.9995 8.82272C63.9995 4.50229 67.5472 1 71.9235 1ZM36.4977 57.912C36.4977 56.3595 37.0398 55.097 38.1722 54.0329L46.4433 46.2598C51.2589 41.7344 55.7076 42.6366 61.3219 44.4129C64.5941 45.4481 67.7773 46.455 71.4826 46.6915L80.5197 72.7745C79.4293 73.3169 78.3087 73.8551 77.0899 74.3523C75.0401 75.1883 72.8718 74.7544 71.3053 73.1899L53.2758 55.1806C52.7088 54.6169 51.8048 54.5986 51.2159 55.1236C51.2159 55.1236 50.6133 55.6232 50.5594 55.6666C48.7127 57.1564 45.6177 59.6532 45.6177 63.7837C45.6177 66.1475 44.4704 68.1059 42.7245 69.5184C41.0439 70.8781 38.8195 71.7449 36.4977 72.0094V57.912ZM28.1704 47.6941C29.6289 48.0649 31.0467 48.3206 32.4616 48.4697C34.8909 48.7257 37.2875 48.665 39.8455 48.3324L36.1104 51.8427C34.3951 53.4547 33.4816 55.558 33.4816 57.912V73.6031C33.4816 74.4355 34.1568 75.1103 34.9897 75.1103C38.4961 75.1103 42.0378 73.9407 44.6214 71.8504C47.0425 69.8916 48.6337 67.1409 48.6337 63.7841C48.6337 61.2814 50.6844 59.4444 52.1183 58.2743L69.1844 75.3213C70.0027 76.1389 70.9431 76.7591 71.9543 77.1717C72.6424 77.8905 73.3286 78.6108 74.0151 79.3311C75.2332 80.604 75.3072 82.627 74.0386 83.8949C72.7998 85.133 70.7409 85.133 69.5021 83.8949C66.193 80.5877 62.9411 77.2028 59.6691 73.8517C59.09 73.2566 58.1377 73.2433 57.5426 73.8221C56.9472 74.4009 56.9339 75.3527 57.513 75.9476L66.4896 85.1465C67.7356 86.3919 67.735 88.4354 66.4892 89.6806C65.2438 90.9256 63.1987 90.9258 61.9531 89.6808C58.5029 86.2321 55.1138 82.7138 51.7027 79.2203C51.1236 78.6253 50.1713 78.6122 49.5761 79.191C48.9808 79.7698 48.9675 80.7216 49.5468 81.3164L58.5234 90.5154C59.7624 91.7538 59.7628 93.8109 58.5236 95.0493C57.3262 96.246 55.07 96.1317 53.987 95.0495C50.2407 91.305 46.5607 87.5031 42.8574 83.7102C42.2783 83.1151 41.326 83.1019 40.7308 83.6806C40.1357 84.2594 40.1224 85.2112 40.7015 85.8061L49.6779 95.005C50.5922 95.9191 50.5831 97.4285 49.6622 98.3323C48.7674 99.2051 47.2952 99.236 46.4022 98.3435C46.3665 98.3793 31.6312 83.2216 30.288 81.846C26.8823 78.3588 23.8485 75.2633 19.3997 73.0076L28.1704 47.6941ZM36.8421 38.746H63.1577V32.4438C63.1577 28.2315 60.7971 24.5439 57.3333 22.6359C55.3871 24.3769 52.8102 25.4326 49.9998 25.4326C47.1894 25.4326 44.6125 24.3767 42.6663 22.6359C39.2025 24.5439 36.8419 28.2315 36.8419 32.4438L36.8421 38.746ZM66.1737 32.9732V32.4438C66.1737 27.7482 63.8683 23.57 60.3324 20.9811C61.3577 19.2592 62.8315 17.832 64.5901 16.8633C66.5361 18.6043 69.1132 19.66 71.9233 19.66C74.7337 19.66 77.3106 18.6043 79.2568 16.8633C82.7206 18.7711 85.0812 22.4589 85.0812 26.671V32.9732H66.1737ZM14.9188 32.9732V26.671C14.9188 22.4587 17.2792 18.7711 20.7432 16.8633C22.6894 18.6043 25.2663 19.66 28.0767 19.66C30.887 19.66 33.4637 18.6043 35.4099 16.8633C37.1683 17.832 38.6423 19.2592 39.6676 20.9811C36.1318 23.57 33.8263 27.7482 33.8263 32.4438V32.9732H14.9188ZM2 38.5507V75.9468H14.4738C14.9099 75.9468 15.2811 75.6827 15.4237 75.2709L26.8582 42.2694C27.0335 41.7633 26.782 41.2099 26.2853 41.0091C18.1902 37.7353 10.0951 36.9158 2 38.5507Z" fill="#2F3091"/>
</g>
<defs>
<clipPath id="clip0_3_28">
<rect width="96" height="98" fill="white" transform="translate(2 1)"/>
</clipPath>
</defs>
</svg>
